<svg xmlns="http://www.w3.org/2000/svg" width="341" height="328" viewBox="0 0 341 328">
  <line x1="82.4" y1="142.6" x2="82.4" y2="150.6" stroke="#5a5a5a" stroke-width="1"/>
  <text x="82.4" y="163.6" fill="#aaaaaa" font-family="sans-serif" font-size="10" text-anchor="middle">-1</text>
  <line x1="258.4" y1="142.6" x2="258.4" y2="150.6" stroke="#5a5a5a" stroke-width="1"/>
  <text x="258.4" y="163.6" fill="#aaaaaa" font-family="sans-serif" font-size="10" text-anchor="middle">1</text>
  <line x1="166.4" y1="234.6" x2="174.4" y2="234.6" stroke="#5a5a5a" stroke-width="1"/>
  <text x="161.4" y="238.1" fill="#aaaaaa" font-family="sans-serif" font-size="10" text-anchor="end">-1</text>
  <line x1="166.4" y1="58.6" x2="174.4" y2="58.6" stroke="#5a5a5a" stroke-width="1"/>
  <text x="161.4" y="62.1" fill="#aaaaaa" font-family="sans-serif" font-size="10" text-anchor="end">1</text>
  <line x1="34.0" y1="146.6" x2="306.8" y2="146.6" stroke="#8a8a8a" stroke-width="1.3"/>
  <line x1="170.4" y1="247.8" x2="170.4" y2="34.0" stroke="#8a8a8a" stroke-width="1.3"/>
  <text x="312.8" y="150.6" fill="#aaaaaa" font-family="sans-serif" font-size="12" font-style="italic">X</text>
  <text x="166.4" y="26.0" fill="#aaaaaa" font-family="sans-serif" font-size="12" font-style="italic" text-anchor="middle">Y</text>
  <path d="M 170.40 58.64 L 150.16 119.36 L 86.80 119.36 L 137.84 157.20 L 118.48 217.92 L 170.40 180.08 L 222.32 217.92 L 202.96 157.20 L 254.00 119.36 L 190.64 119.36 Z" fill="#e08a5a22" stroke="#e08a5a" stroke-width="2.2" stroke-linejoin="round"/>
  <path d="M 170.40 109.68 L 192.40 160.72 L 148.40 160.72 Z" fill="none" stroke="#6aa6e0" stroke-width="2.0" stroke-linejoin="round"/>
  <polygon points="159.3,92.0 165.5,85.6 158.1,83.1" fill="#e08a5a"/>
  <polygon points="182.5,137.8 182.9,128.8 175.7,131.9" fill="#6aa6e0"/>
  <circle cx="170.4" cy="58.6" r="3.6" fill="#e08a5a"/>
  <text x="180.4" y="50.6" fill="#dddddd" font-family="sans-serif" font-size="10.5" text-anchor="start">0, 1  (start)</text>
  <circle cx="150.2" cy="119.4" r="3.6" fill="#e08a5a"/>
  <circle cx="86.8" cy="119.4" r="3.6" fill="#e08a5a"/>
  <circle cx="137.8" cy="157.2" r="3.6" fill="#e08a5a"/>
  <circle cx="118.5" cy="217.9" r="3.6" fill="#e08a5a"/>
  <circle cx="170.4" cy="180.1" r="3.6" fill="#e08a5a"/>
  <circle cx="222.3" cy="217.9" r="3.6" fill="#e08a5a"/>
  <circle cx="203.0" cy="157.2" r="3.6" fill="#e08a5a"/>
  <circle cx="254.0" cy="119.4" r="3.6" fill="#e08a5a"/>
  <circle cx="190.6" cy="119.4" r="3.6" fill="#e08a5a"/>
  <circle cx="170.4" cy="109.7" r="3.6" fill="#6aa6e0"/>
  <circle cx="192.4" cy="160.7" r="3.6" fill="#6aa6e0"/>
  <circle cx="148.4" cy="160.7" r="3.6" fill="#6aa6e0"/>
  <line x1="34.0" y1="289.8" x2="52.0" y2="289.8" stroke="#e08a5a" stroke-width="2.4"/>
  <text x="59.0" y="293.8" fill="#dddddd" font-family="sans-serif" font-size="11">outer run — counter-clockwise, so its walls face out</text>
  <line x1="34.0" y1="305.8" x2="52.0" y2="305.8" stroke="#6aa6e0" stroke-width="2.4"/>
  <text x="59.0" y="309.8" fill="#dddddd" font-family="sans-serif" font-size="11">inner run — clockwise, cutting the hole</text>
</svg>
