<svg id="my-svg" width="100%" xmlns="http://www.w3.org/2000/svg" xmlns:xlink="http://www.w3.org/1999/xlink" class="railroad-diagram" style="max-width: 450.297px; background-color: transparent;" viewBox="0 0 450.296875 1006" role="graphics-document document" aria-roledescription="railroadEbnf"><style>#my-svg{font-family:"trebuchet ms",verdana,arial,sans-serif;font-size:16px;fill:#ccc;}@keyframes edge-animation-frame{from{stroke-dashoffset:0;}}@keyframes dash{to{stroke-dashoffset:0;}}#my-svg .edge-animation-slow{stroke-dasharray:9,5!important;stroke-dashoffset:900;animation:dash 50s linear infinite;stroke-linecap:round;}#my-svg .edge-animation-fast{stroke-dasharray:9,5!important;stroke-dashoffset:900;animation:dash 20s linear infinite;stroke-linecap:round;}#my-svg .error-icon{fill:#a44141;}#my-svg .error-text{fill:#ddd;stroke:#ddd;}#my-svg .edge-thickness-normal{stroke-width:1px;}#my-svg .edge-thickness-thick{stroke-width:3.5px;}#my-svg .edge-pattern-solid{stroke-dasharray:0;}#my-svg .edge-thickness-invisible{stroke-width:0;fill:none;}#my-svg .edge-pattern-dashed{stroke-dasharray:3;}#my-svg .edge-pattern-dotted{stroke-dasharray:2;}#my-svg .marker{fill:lightgrey;stroke:lightgrey;}#my-svg .marker.cross{stroke:lightgrey;}#my-svg svg{font-family:"trebuchet ms",verdana,arial,sans-serif;font-size:16px;}#my-svg p{margin:0;}#my-svg .railroad-diagram{font-family:"trebuchet ms",verdana,arial,sans-serif;font-size:16px;}#my-svg .railroad-terminal rect{fill:hsl(180, 1.5873015873%, 28.3529411765%);stroke:hsl(180, 0%, 18.3529411765%);stroke-width:2px;}#my-svg .railroad-terminal text{fill:rgb(183.8476190475, 181.5523809523, 181.5523809523);font-family:"trebuchet ms",verdana,arial,sans-serif;font-size:16px;text-anchor:middle;dominant-baseline:middle;}#my-svg .railroad-nonterminal rect{fill:#1f2020;stroke:#cccccc;stroke-width:2px;}#my-svg .railroad-nonterminal text{fill:#e0dfdf;font-family:"trebuchet ms",verdana,arial,sans-serif;font-size:16px;text-anchor:middle;dominant-baseline:middle;}#my-svg .railroad-line{stroke:lightgrey;stroke-width:2px;fill:none;}#my-svg .railroad-start circle,#my-svg .railroad-end circle{fill:lightgrey;}#my-svg .railroad-comment ellipse{fill:#181818;stroke:hsl(20, 0%, 2.3529411765%);stroke-width:2px;}#my-svg .railroad-comment text{fill:rgb(222.9999999999, 223.6666666666, 223.9999999999);font-style:italic;font-family:"trebuchet ms",verdana,arial,sans-serif;font-size:16px;text-anchor:middle;dominant-baseline:middle;}#my-svg .railroad-special rect{fill:hsl(20, 1.5873015873%, 12.3529411765%);stroke:hsl(20, 0%, 2.3529411765%);stroke-width:2px;stroke-dasharray:5,3;}#my-svg .railroad-special text{fill:#e0dfdf;font-family:"trebuchet ms",verdana,arial,sans-serif;font-size:16px;text-anchor:middle;dominant-baseline:middle;}#my-svg .railroad-rule-name{font-weight:bold;fill:#F9FFFE;font-family:"trebuchet ms",verdana,arial,sans-serif;font-size:16px;}#my-svg .node .neo-node{stroke:#ccc;}#my-svg [data-look="neo"].node rect,#my-svg [data-look="neo"].cluster rect,#my-svg [data-look="neo"].node polygon{stroke:url(#my-svg-gradient);filter:drop-shadow( 1px 2px 2px rgba(185,185,185,1));}#my-svg [data-look="neo"].swimlane.cluster rect{filter:none;}#my-svg [data-look="neo"].node path{stroke:url(#my-svg-gradient);stroke-width:1px;}#my-svg [data-look="neo"].node .outer-path{filter:drop-shadow( 1px 2px 2px rgba(185,185,185,1));}#my-svg [data-look="neo"].node .neo-line path{stroke:#ccc;filter:none;}#my-svg [data-look="neo"].node circle{stroke:url(#my-svg-gradient);filter:drop-shadow( 1px 2px 2px rgba(185,185,185,1));}#my-svg [data-look="neo"].node circle .state-start{fill:#000000;}#my-svg [data-look="neo"].icon-shape .icon{fill:url(#my-svg-gradient);filter:drop-shadow( 1px 2px 2px rgba(185,185,185,1));}#my-svg [data-look="neo"].icon-shape .icon-neo path{stroke:url(#my-svg-gradient);filter:drop-shadow( 1px 2px 2px rgba(185,185,185,1));}#my-svg :root{--mermaid-font-family:"trebuchet ms",verdana,arial,sans-serif;}</style><g/><g class="railroad-rule" transform="translate(0, 10)"><g transform="translate(128.65625, 0)"><g class="railroad-sequence"><g class="railroad-nonterminal" transform="translate(0, 114)"><rect x="0" y="0" width="78.515625" height="39"/><text x="39.2578125" y="19.5">operand</text></g><path class="railroad-line" d="M 78.515625 133.5 L 88.515625 133.5"/><g class="railroad-repetition" transform="translate(88.515625, 0)"><g class="railroad-sequence" transform="translate(20, 20)"><g class="railroad-choice" transform="translate(0, 0)"><g class="railroad-terminal" transform="translate(20.609375, 0)"><rect x="0" y="0" width="28.390625" height="39" rx="10" ry="10"/><text x="14.1953125" y="19.5">+</text></g><path class="railroad-line" d="M 0 113.5 A 10 10 0 0 0 10 103.5 L 10 29.5 A 10 10 0 0 1 20 19.5 L 20.609375 19.5"/><path class="railroad-line" d="M 49 19.5 L 49.609375 19.5 A 10 10 0 0 1 59.609375 29.5 L 59.609375 103.5 A 10 10 0 0 0 69.609375 113.5"/><g class="railroad-terminal" transform="translate(21.8671875, 47)"><rect x="0" y="0" width="25.875" height="39" rx="10" ry="10"/><text x="12.9375" y="19.5">-</text></g><path class="railroad-line" d="M 0 113.5 A 10 10 0 0 0 10 103.5 L 10 76.5 A 10 10 0 0 1 20 66.5 L 21.8671875 66.5"/><path class="railroad-line" d="M 47.7421875 66.5 L 49.609375 66.5 A 10 10 0 0 1 59.609375 76.5 L 59.609375 103.5 A 10 10 0 0 0 69.609375 113.5"/><g class="railroad-terminal" transform="translate(21.8671875, 94)"><rect x="0" y="0" width="25.875" height="39" rx="10" ry="10"/><text x="12.9375" y="19.5">*</text></g><path class="railroad-line" d="M 0 113.5 L 21.8671875 113.5"/><path class="railroad-line" d="M 47.7421875 113.5 L 69.609375 113.5"/><g class="railroad-terminal" transform="translate(20.609375, 141)"><rect x="0" y="0" width="28.390625" height="39" rx="10" ry="10"/><text x="14.1953125" y="19.5">/</text></g><path class="railroad-line" d="M 0 113.5 A 10 10 0 0 1 10 123.5 L 10 150.5 A 10 10 0 0 0 20 160.5 L 20.609375 160.5"/><path class="railroad-line" d="M 49 160.5 L 49.609375 160.5 A 10 10 0 0 0 59.609375 150.5 L 59.609375 123.5 A 10 10 0 0 1 69.609375 113.5"/><g class="railroad-terminal" transform="translate(20, 188)"><rect x="0" y="0" width="29.609375" height="39" rx="10" ry="10"/><text x="14.8046875" y="19.5">%</text></g><path class="railroad-line" d="M 0 113.5 A 10 10 0 0 1 10 123.5 L 10 197.5 A 10 10 0 0 0 20 207.5 L 20 207.5"/><path class="railroad-line" d="M 49.609375 207.5 L 49.609375 207.5 A 10 10 0 0 0 59.609375 197.5 L 59.609375 123.5 A 10 10 0 0 1 69.609375 113.5"/></g><path class="railroad-line" d="M 69.609375 113.5 L 79.609375 113.5"/><g class="railroad-nonterminal" transform="translate(79.609375, 94)"><rect x="0" y="0" width="78.515625" height="39"/><text x="39.2578125" y="19.5">operand</text></g></g><path class="railroad-line" d="M 0 133.5 L 20 133.5"/><path class="railroad-line" d="M 178.125 133.5 L 198.125 133.5"/><path class="railroad-line" d="M 178.125 133.5 A 10 10 0 0 1 188.125 143.5 L 188.125 257 A 10 10 0 0 1 178.125 267 L 20 267 A 10 10 0 0 1 10 257 L 10 143.5 A 10 10 0 0 1 20 133.5"/><path class="railroad-line" d="M 0 133.5 A 10 10 0 0 0 10 123.5 L 10 10 A 10 10 0 0 1 20 0 L 178.125 0 A 10 10 0 0 1 188.125 10 L 188.125 123.5 A 10 10 0 0 0 198.125 133.5"/></g></g></g><g class="railroad-rule-name-group"><text class="railroad-rule-name" x="0" y="133.5">expression =</text></g><g class="railroad-start"><circle cx="108.65625" cy="133.5" r="5"/></g><g class="railroad-end"><circle cx="425.296875" cy="133.5" r="5"/></g><path class="railroad-line" d="M 113.65625 133.5 L 128.65625 133.5"/><path class="railroad-line" d="M 415.296875 133.5 L 420.296875 133.5"/></g><g class="railroad-rule" transform="translate(0, 305)"><g transform="translate(111.71875, 0)"><g class="railroad-sequence"><g class="railroad-optional" transform="translate(0, 23.5)"><g class="railroad-terminal" transform="translate(20, 20)"><rect x="0" y="0" width="25.875" height="39" rx="10" ry="10"/><text x="12.9375" y="19.5">-</text></g><path class="railroad-line" d="M 0 39.5 L 20 39.5"/><path class="railroad-line" d="M 45.875 39.5 L 65.875 39.5"/><path class="railroad-line" d="M 0 39.5 A 10 10 0 0 0 10 29.5 L 10 10 A 10 10 0 0 1 20 0 L 45.875 0 A 10 10 0 0 1 55.875 10 L 55.875 29.5 A 10 10 0 0 0 65.875 39.5"/></g><path class="railroad-line" d="M 65.875 63 L 75.875 63"/><g class="railroad-nonterminal" transform="translate(75.875, 43.5)"><rect x="0" y="0" width="75.5" height="39"/><text x="37.75" y="19.5">primary</text></g><path class="railroad-line" d="M 151.375 63 L 161.375 63"/><g class="railroad-optional" transform="translate(161.375, 0)"><g class="railroad-choice" transform="translate(20, 20)"><g class="railroad-terminal" transform="translate(20.0234375, 0)"><rect x="0" y="0" width="27.21875" height="39" rx="10" ry="10"/><text x="13.609375" y="19.5">²</text></g><path class="railroad-line" d="M 0 43 A 10 10 0 0 0 10 33 L 10 29.5 A 10 10 0 0 1 20 19.5 L 20.0234375 19.5"/><path class="railroad-line" d="M 47.2421875 19.5 L 47.265625 19.5 A 10 10 0 0 1 57.265625 29.5 L 57.265625 33 A 10 10 0 0 0 67.265625 43"/><g class="railroad-terminal" transform="translate(20, 47)"><rect x="0" y="0" width="27.265625" height="39" rx="10" ry="10"/><text x="13.6328125" y="19.5">³</text></g><path class="railroad-line" d="M 0 43 A 10 10 0 0 1 10 53 L 10 56.5 A 10 10 0 0 0 20 66.5 L 20 66.5"/><path class="railroad-line" d="M 47.265625 66.5 L 47.265625 66.5 A 10 10 0 0 0 57.265625 56.5 L 57.265625 53 A 10 10 0 0 1 67.265625 43"/></g><path class="railroad-line" d="M 0 63 L 20 63"/><path class="railroad-line" d="M 87.265625 63 L 107.265625 63"/><path class="railroad-line" d="M 0 63 A 10 10 0 0 0 10 53 L 10 10 A 10 10 0 0 1 20 0 L 87.265625 0 A 10 10 0 0 1 97.265625 10 L 97.265625 53 A 10 10 0 0 0 107.265625 63"/></g></g></g><g class="railroad-rule-name-group"><text class="railroad-rule-name" x="0" y="63">operand =</text></g><g class="railroad-start"><circle cx="91.71875" cy="63" r="5"/></g><g class="railroad-end"><circle cx="390.359375" cy="63" r="5"/></g><path class="railroad-line" d="M 96.71875 63 L 111.71875 63"/><path class="railroad-line" d="M 380.359375 63 L 385.359375 63"/></g><g class="railroad-rule" transform="translate(0, 439)"><g transform="translate(108.703125, 0)"><g class="railroad-choice"><g class="railroad-nonterminal" transform="translate(78.2578125, 0)"><rect x="0" y="0" width="74.625" height="39"/><text x="37.3125" y="19.5">number</text></g><path class="railroad-line" d="M 0 264.5 A 10 10 0 0 0 10 254.5 L 10 29.5 A 10 10 0 0 1 20 19.5 L 78.2578125 19.5"/><path class="railroad-line" d="M 152.8828125 19.5 L 211.140625 19.5 A 10 10 0 0 1 221.140625 29.5 L 221.140625 254.5 A 10 10 0 0 0 231.140625 264.5"/><g class="railroad-sequence" transform="translate(46.1875, 47)"><g class="railroad-optional" transform="translate(0, 0)"><g class="railroad-terminal" transform="translate(20, 20)"><rect x="0" y="0" width="28.390625" height="39" rx="10" ry="10"/><text x="14.1953125" y="19.5">$</text></g><path class="railroad-line" d="M 0 39.5 L 20 39.5"/><path class="railroad-line" d="M 48.390625 39.5 L 68.390625 39.5"/><path class="railroad-line" d="M 0 39.5 A 10 10 0 0 0 10 29.5 L 10 10 A 10 10 0 0 1 20 0 L 48.390625 0 A 10 10 0 0 1 58.390625 10 L 58.390625 29.5 A 10 10 0 0 0 68.390625 39.5"/></g><path class="railroad-line" d="M 68.390625 39.5 L 78.390625 39.5"/><g class="railroad-nonterminal" transform="translate(78.390625, 20)"><rect x="0" y="0" width="60.375" height="39"/><text x="30.1875" y="19.5">string</text></g></g><path class="railroad-line" d="M 0 264.5 A 10 10 0 0 0 10 254.5 L 10 96.5 A 10 10 0 0 1 20 86.5 L 46.1875 86.5"/><path class="railroad-line" d="M 184.953125 86.5 L 211.140625 86.5 A 10 10 0 0 1 221.140625 96.5 L 221.140625 254.5 A 10 10 0 0 0 231.140625 264.5"/><g class="railroad-terminal" transform="translate(90.5546875, 114)"><rect x="0" y="0" width="50.03125" height="39" rx="10" ry="10"/><text x="25.015625" y="19.5">true</text></g><path class="railroad-line" d="M 0 264.5 A 10 10 0 0 0 10 254.5 L 10 143.5 A 10 10 0 0 1 20 133.5 L 90.5546875 133.5"/><path class="railroad-line" d="M 140.5859375 133.5 L 211.140625 133.5 A 10 10 0 0 1 221.140625 143.5 L 221.140625 254.5 A 10 10 0 0 0 231.140625 264.5"/><g class="railroad-terminal" transform="translate(88.4453125, 161)"><rect x="0" y="0" width="54.25" height="39" rx="10" ry="10"/><text x="27.125" y="19.5">false</text></g><path class="railroad-line" d="M 0 264.5 A 10 10 0 0 0 10 254.5 L 10 190.5 A 10 10 0 0 1 20 180.5 L 88.4453125 180.5"/><path class="railroad-line" d="M 142.6953125 180.5 L 211.140625 180.5 A 10 10 0 0 1 221.140625 190.5 L 221.140625 254.5 A 10 10 0 0 0 231.140625 264.5"/><g class="railroad-terminal" transform="translate(92.109375, 208)"><rect x="0" y="0" width="46.921875" height="39" rx="10" ry="10"/><text x="23.4609375" y="19.5">null</text></g><path class="railroad-line" d="M 0 264.5 A 10 10 0 0 0 10 254.5 L 10 237.5 A 10 10 0 0 1 20 227.5 L 92.109375 227.5"/><path class="railroad-line" d="M 139.03125 227.5 L 211.140625 227.5 A 10 10 0 0 1 221.140625 237.5 L 221.140625 254.5 A 10 10 0 0 0 231.140625 264.5"/><g class="railroad-nonterminal" transform="translate(86.84375, 255)"><rect x="0" y="0" width="57.453125" height="39"/><text x="28.7265625" y="19.5">tuple</text></g><path class="railroad-line" d="M 0 264.5 A 10 10 0 0 1 10 274.5 L 10 264.5 A 10 10 0 0 0 20 274.5 L 86.84375 274.5"/><path class="railroad-line" d="M 144.296875 274.5 L 211.140625 274.5 A 10 10 0 0 0 221.140625 264.5 L 221.140625 274.5 A 10 10 0 0 1 231.140625 264.5"/><g class="railroad-nonterminal" transform="translate(85.9921875, 302)"><rect x="0" y="0" width="59.15625" height="39"/><text x="29.578125" y="19.5">name</text></g><path class="railroad-line" d="M 0 264.5 A 10 10 0 0 1 10 274.5 L 10 311.5 A 10 10 0 0 0 20 321.5 L 85.9921875 321.5"/><path class="railroad-line" d="M 145.1484375 321.5 L 211.140625 321.5 A 10 10 0 0 0 221.140625 311.5 L 221.140625 274.5 A 10 10 0 0 1 231.140625 264.5"/><g class="railroad-sequence" transform="translate(20, 349)"><g class="railroad-choice" transform="translate(0, 0)"><g class="railroad-terminal" transform="translate(24.8046875, 0)"><rect x="0" y="0" width="56.03125" height="39" rx="10" ry="10"/><text x="28.015625" y="19.5">color</text></g><path class="railroad-line" d="M 0 66.5 A 10 10 0 0 0 10 56.5 L 10 29.5 A 10 10 0 0 1 20 19.5 L 24.8046875 19.5"/><path class="railroad-line" d="M 80.8359375 19.5 L 85.640625 19.5 A 10 10 0 0 1 95.640625 29.5 L 95.640625 56.5 A 10 10 0 0 0 105.640625 66.5"/><g class="railroad-terminal" transform="translate(24.2421875, 47)"><rect x="0" y="0" width="57.15625" height="39" rx="10" ry="10"/><text x="28.578125" y="19.5">point</text></g><path class="railroad-line" d="M 0 66.5 L 24.2421875 66.5"/><path class="railroad-line" d="M 81.3984375 66.5 L 105.640625 66.5"/><g class="railroad-terminal" transform="translate(20, 94)"><rect x="0" y="0" width="65.640625" height="39" rx="10" ry="10"/><text x="32.8203125" y="19.5">vector</text></g><path class="railroad-line" d="M 0 66.5 A 10 10 0 0 1 10 76.5 L 10 103.5 A 10 10 0 0 0 20 113.5 L 20 113.5"/><path class="railroad-line" d="M 85.640625 113.5 L 85.640625 113.5 A 10 10 0 0 0 95.640625 103.5 L 95.640625 76.5 A 10 10 0 0 1 105.640625 66.5"/></g><path class="railroad-line" d="M 105.640625 66.5 L 115.640625 66.5"/><g class="railroad-nonterminal" transform="translate(115.640625, 47)"><rect x="0" y="0" width="75.5" height="39"/><text x="37.75" y="19.5">primary</text></g></g><path class="railroad-line" d="M 0 264.5 A 10 10 0 0 1 10 274.5 L 10 405.5 A 10 10 0 0 0 20 415.5 L 20 415.5"/><path class="railroad-line" d="M 211.140625 415.5 L 211.140625 415.5 A 10 10 0 0 0 221.140625 405.5 L 221.140625 274.5 A 10 10 0 0 1 231.140625 264.5"/><g class="railroad-sequence" transform="translate(31.96875, 490)"><g class="railroad-terminal" transform="translate(0, 0)"><rect x="0" y="0" width="25.875" height="39" rx="10" ry="10"/><text x="12.9375" y="19.5">(</text></g><path class="railroad-line" d="M 25.875 19.5 L 35.875 19.5"/><g class="railroad-nonterminal" transform="translate(35.875, 0)"><rect x="0" y="0" width="95.453125" height="39"/><text x="47.7265625" y="19.5">expression</text></g><path class="railroad-line" d="M 131.328125 19.5 L 141.328125 19.5"/><g class="railroad-terminal" transform="translate(141.328125, 0)"><rect x="0" y="0" width="25.875" height="39" rx="10" ry="10"/><text x="12.9375" y="19.5">)</text></g></g><path class="railroad-line" d="M 0 264.5 A 10 10 0 0 1 10 274.5 L 10 499.5 A 10 10 0 0 0 20 509.5 L 31.96875 509.5"/><path class="railroad-line" d="M 199.171875 509.5 L 211.140625 509.5 A 10 10 0 0 0 221.140625 499.5 L 221.140625 274.5 A 10 10 0 0 1 231.140625 264.5"/></g></g><g class="railroad-rule-name-group"><text class="railroad-rule-name" x="0" y="264.5">primary =</text></g><g class="railroad-start"><circle cx="88.703125" cy="264.5" r="5"/></g><g class="railroad-end"><circle cx="349.84375" cy="264.5" r="5"/></g><path class="railroad-line" d="M 93.703125 264.5 L 108.703125 264.5"/><path class="railroad-line" d="M 339.84375 264.5 L 344.84375 264.5"/></g></svg>