<svg id="my-svg" width="100%" xmlns="http://www.w3.org/2000/svg" xmlns:xlink="http://www.w3.org/1999/xlink" class="railroad-diagram" style="max-width: 861.312px; background-color: transparent;" viewBox="0 0 861.3125 261" role="graphics-document document" aria-roledescription="railroadEbnf"><style>#my-svg{font-family:"trebuchet ms",verdana,arial,sans-serif;font-size:16px;fill:#333;}@keyframes edge-animation-frame{from{stroke-dashoffset:0;}}@keyframes dash{to{stroke-dashoffset:0;}}#my-svg .edge-animation-slow{stroke-dasharray:9,5!important;stroke-dashoffset:900;animation:dash 50s linear infinite;stroke-linecap:round;}#my-svg .edge-animation-fast{stroke-dasharray:9,5!important;stroke-dashoffset:900;animation:dash 20s linear infinite;stroke-linecap:round;}#my-svg .error-icon{fill:#552222;}#my-svg .error-text{fill:#552222;stroke:#552222;}#my-svg .edge-thickness-normal{stroke-width:1px;}#my-svg .edge-thickness-thick{stroke-width:3.5px;}#my-svg .edge-pattern-solid{stroke-dasharray:0;}#my-svg .edge-thickness-invisible{stroke-width:0;fill:none;}#my-svg .edge-pattern-dashed{stroke-dasharray:3;}#my-svg .edge-pattern-dotted{stroke-dasharray:2;}#my-svg .marker{fill:#333333;stroke:#333333;}#my-svg .marker.cross{stroke:#333333;}#my-svg svg{font-family:"trebuchet ms",verdana,arial,sans-serif;font-size:16px;}#my-svg p{margin:0;}#my-svg .railroad-diagram{font-family:"trebuchet ms",verdana,arial,sans-serif;font-size:16px;}#my-svg .railroad-terminal rect{fill:#ffffde;stroke:hsl(60, 60%, 83.5294117647%);stroke-width:2px;}#my-svg .railroad-terminal text{fill:#000021;font-family:"trebuchet ms",verdana,arial,sans-serif;font-size:16px;text-anchor:middle;dominant-baseline:middle;}#my-svg .railroad-nonterminal rect{fill:#ECECFF;stroke:hsl(240, 60%, 86.2745098039%);stroke-width:2px;}#my-svg .railroad-nonterminal text{fill:#131300;font-family:"trebuchet ms",verdana,arial,sans-serif;font-size:16px;text-anchor:middle;dominant-baseline:middle;}#my-svg .railroad-line{stroke:#333333;stroke-width:2px;fill:none;}#my-svg .railroad-start circle,#my-svg .railroad-end circle{fill:#333333;}#my-svg .railroad-comment ellipse{fill:rgba(232,232,232, 0.8);stroke:hsl(80, 60%, 86.2745098039%);stroke-width:2px;}#my-svg .railroad-comment text{fill:rgb(6.3333333334, 0, 19.0000000001);font-style:italic;font-family:"trebuchet ms",verdana,arial,sans-serif;font-size:16px;text-anchor:middle;dominant-baseline:middle;}#my-svg .railroad-special rect{fill:hsl(80, 100%, 96.2745098039%);stroke:hsl(80, 60%, 86.2745098039%);stroke-width:2px;stroke-dasharray:5,3;}#my-svg .railroad-special text{fill:#131300;font-family:"trebuchet ms",verdana,arial,sans-serif;font-size:16px;text-anchor:middle;dominant-baseline:middle;}#my-svg .railroad-rule-name{font-weight:bold;fill:#333;font-family:"trebuchet ms",verdana,arial,sans-serif;font-size:16px;}#my-svg .node .neo-node{stroke:#9370DB;}#my-svg [data-look="neo"].node rect,#my-svg [data-look="neo"].cluster rect,#my-svg [data-look="neo"].node polygon{stroke:#9370DB;filter:drop-shadow(1px 2px 2px rgba(185, 185, 185, 1));}#my-svg [data-look="neo"].swimlane.cluster rect{filter:none;}#my-svg [data-look="neo"].node path{stroke:#9370DB;stroke-width:1px;}#my-svg [data-look="neo"].node .outer-path{filter:drop-shadow(1px 2px 2px rgba(185, 185, 185, 1));}#my-svg [data-look="neo"].node .neo-line path{stroke:#9370DB;filter:none;}#my-svg [data-look="neo"].node circle{stroke:#9370DB;filter:drop-shadow(1px 2px 2px rgba(185, 185, 185, 1));}#my-svg [data-look="neo"].node circle .state-start{fill:#000000;}#my-svg [data-look="neo"].icon-shape .icon{fill:#9370DB;filter:drop-shadow(1px 2px 2px rgba(185, 185, 185, 1));}#my-svg [data-look="neo"].icon-shape .icon-neo path{stroke:#9370DB;filter:drop-shadow(1px 2px 2px rgba(185, 185, 185, 1));}#my-svg :root{--mermaid-font-family:"trebuchet ms",verdana,arial,sans-serif;}</style><g/><g class="railroad-rule" transform="translate(0, 10)"><g transform="translate(85.9375, 0)"><g class="railroad-sequence"><g class="railroad-terminal" transform="translate(0, 20)"><rect x="0" y="0" width="52.734375" height="39" rx="10" ry="10"/><text x="26.3671875" y="19.5">tube</text></g><path class="railroad-line" d="M 52.734375 39.5 L 62.734375 39.5"/><g class="railroad-terminal" transform="translate(62.734375, 20)"><rect x="0" y="0" width="25.875" height="39" rx="10" ry="10"/><text x="12.9375" y="19.5">{</text></g><path class="railroad-line" d="M 88.609375 39.5 L 98.609375 39.5"/><g class="railroad-optional" transform="translate(98.609375, 0)"><g class="railroad-terminal" transform="translate(20, 20)"><rect x="0" y="0" width="117.40625" height="39" rx="10" ry="10"/><text x="58.703125" y="19.5">discontinuous</text></g><path class="railroad-line" d="M 0 39.5 L 20 39.5"/><path class="railroad-line" d="M 137.40625 39.5 L 157.40625 39.5"/><path class="railroad-line" d="M 0 39.5 A 10 10 0 0 0 10 29.5 L 10 10 A 10 10 0 0 1 20 0 L 137.40625 0 A 10 10 0 0 1 147.40625 10 L 147.40625 29.5 A 10 10 0 0 0 157.40625 39.5"/></g><path class="railroad-line" d="M 256.015625 39.5 L 266.015625 39.5"/><g class="railroad-repetition" transform="translate(266.015625, 0)"><g class="railroad-nonterminal" transform="translate(20, 20)"><rect x="0" y="0" width="57.15625" height="39"/><text x="28.578125" y="19.5">point</text></g><path class="railroad-line" d="M 0 39.5 L 20 39.5"/><path class="railroad-line" d="M 77.15625 39.5 L 97.15625 39.5"/><path class="railroad-line" d="M 77.15625 39.5 A 10 10 0 0 1 87.15625 49.5 L 87.15625 69 A 10 10 0 0 1 77.15625 79 L 20 79 A 10 10 0 0 1 10 69 L 10 49.5 A 10 10 0 0 1 20 39.5"/><path class="railroad-line" d="M 0 39.5 A 10 10 0 0 0 10 29.5 L 10 10 A 10 10 0 0 1 20 0 L 77.15625 0 A 10 10 0 0 1 87.15625 10 L 87.15625 29.5 A 10 10 0 0 0 97.15625 39.5"/></g><path class="railroad-line" d="M 363.171875 39.5 L 373.171875 39.5"/><g class="railroad-repetition" transform="translate(373.171875, 0)"><g class="railroad-nonterminal" transform="translate(20, 20)"><rect x="0" y="0" width="81.8125" height="39"/><text x="40.90625" y="19.5">property</text></g><path class="railroad-line" d="M 0 39.5 L 20 39.5"/><path class="railroad-line" d="M 101.8125 39.5 L 121.8125 39.5"/><path class="railroad-line" d="M 101.8125 39.5 A 10 10 0 0 1 111.8125 49.5 L 111.8125 69 A 10 10 0 0 1 101.8125 79 L 20 79 A 10 10 0 0 1 10 69 L 10 49.5 A 10 10 0 0 1 20 39.5"/><path class="railroad-line" d="M 0 39.5 A 10 10 0 0 0 10 29.5 L 10 10 A 10 10 0 0 1 20 0 L 101.8125 0 A 10 10 0 0 1 111.8125 10 L 111.8125 29.5 A 10 10 0 0 0 121.8125 39.5"/></g><path class="railroad-line" d="M 494.984375 39.5 L 504.984375 39.5"/><g class="railroad-terminal" transform="translate(504.984375, 20)"><rect x="0" y="0" width="25.875" height="39" rx="10" ry="10"/><text x="12.9375" y="19.5">}</text></g></g></g><g class="railroad-rule-name-group"><text class="railroad-rule-name" x="0" y="39.5">tube =</text></g><g class="railroad-start"><circle cx="65.9375" cy="39.5" r="5"/></g><g class="railroad-end"><circle cx="626.796875" cy="39.5" r="5"/></g><path class="railroad-line" d="M 70.9375 39.5 L 85.9375 39.5"/><path class="railroad-line" d="M 616.796875 39.5 L 621.796875 39.5"/></g><g class="railroad-rule" transform="translate(0, 117)"><g transform="translate(90.359375, 0)"><g class="railroad-sequence"><g class="railroad-optional" transform="translate(0, 0)"><g class="railroad-choice" transform="translate(20, 20)"><g class="railroad-terminal" transform="translate(22.234375, 0)"><rect x="0" y="0" width="54.984375" height="39" rx="10" ry="10"/><text x="27.4921875" y="19.5">quad</text></g><path class="railroad-line" d="M 0 43 A 10 10 0 0 0 10 33 L 10 29.5 A 10 10 0 0 1 20 19.5 L 22.234375 19.5"/><path class="railroad-line" d="M 77.21875 19.5 L 79.453125 19.5 A 10 10 0 0 1 89.453125 29.5 L 89.453125 33 A 10 10 0 0 0 99.453125 43"/><g class="railroad-terminal" transform="translate(20, 47)"><rect x="0" y="0" width="59.453125" height="39" rx="10" ry="10"/><text x="29.7265625" y="19.5">curve</text></g><path class="railroad-line" d="M 0 43 A 10 10 0 0 1 10 53 L 10 56.5 A 10 10 0 0 0 20 66.5 L 20 66.5"/><path class="railroad-line" d="M 79.453125 66.5 L 79.453125 66.5 A 10 10 0 0 0 89.453125 56.5 L 89.453125 53 A 10 10 0 0 1 99.453125 43"/></g><path class="railroad-line" d="M 0 63 L 20 63"/><path class="railroad-line" d="M 119.453125 63 L 139.453125 63"/><path class="railroad-line" d="M 0 63 A 10 10 0 0 0 10 53 L 10 10 A 10 10 0 0 1 20 0 L 119.453125 0 A 10 10 0 0 1 129.453125 10 L 129.453125 53 A 10 10 0 0 0 139.453125 63"/></g><path class="railroad-line" d="M 139.453125 63 L 149.453125 63"/><g class="railroad-terminal" transform="translate(149.453125, 43.5)"><rect x="0" y="0" width="63.328125" height="39" rx="10" ry="10"/><text x="31.6640625" y="19.5">radius</text></g><path class="railroad-line" d="M 212.78125 63 L 222.78125 63"/><g class="railroad-nonterminal" transform="translate(222.78125, 43.5)"><rect x="0" y="0" width="74.625" height="39"/><text x="37.3125" y="19.5">number</text></g><path class="railroad-line" d="M 297.40625 63 L 307.40625 63"/><g class="railroad-terminal" transform="translate(307.40625, 43.5)"><rect x="0" y="0" width="34.75" height="39" rx="10" ry="10"/><text x="17.375" y="19.5">at</text></g><path class="railroad-line" d="M 342.15625 63 L 352.15625 63"/><g class="railroad-nonterminal" transform="translate(352.15625, 43.5)"><rect x="0" y="0" width="65.546875" height="39"/><text x="32.7734375" y="19.5">point3</text></g><path class="railroad-line" d="M 417.703125 63 L 427.703125 63"/><g class="railroad-repetition" transform="translate(427.703125, 23.5)"><g class="railroad-sequence" transform="translate(20, 20)"><g class="railroad-terminal" transform="translate(0, 0)"><rect x="0" y="0" width="63.328125" height="39" rx="10" ry="10"/><text x="31.6640625" y="19.5">radius</text></g><path class="railroad-line" d="M 63.328125 19.5 L 73.328125 19.5"/><g class="railroad-nonterminal" transform="translate(73.328125, 0)"><rect x="0" y="0" width="74.625" height="39"/><text x="37.3125" y="19.5">number</text></g><path class="railroad-line" d="M 147.953125 19.5 L 157.953125 19.5"/><g class="railroad-terminal" transform="translate(157.953125, 0)"><rect x="0" y="0" width="34.75" height="39" rx="10" ry="10"/><text x="17.375" y="19.5">at</text></g><path class="railroad-line" d="M 192.703125 19.5 L 202.703125 19.5"/><g class="railroad-nonterminal" transform="translate(202.703125, 0)"><rect x="0" y="0" width="65.546875" height="39"/><text x="32.7734375" y="19.5">point3</text></g></g><path class="railroad-line" d="M 0 39.5 L 20 39.5"/><path class="railroad-line" d="M 288.25 39.5 L 308.25 39.5"/><path class="railroad-line" d="M 288.25 39.5 A 10 10 0 0 1 298.25 49.5 L 298.25 69 A 10 10 0 0 1 288.25 79 L 20 79 A 10 10 0 0 1 10 69 L 10 49.5 A 10 10 0 0 1 20 39.5"/><path class="railroad-line" d="M 0 39.5 A 10 10 0 0 0 10 29.5 L 10 10 A 10 10 0 0 1 20 0 L 288.25 0 A 10 10 0 0 1 298.25 10 L 298.25 29.5 A 10 10 0 0 0 308.25 39.5"/></g></g></g><g class="railroad-rule-name-group"><text class="railroad-rule-name" x="0" y="63">point =</text></g><g class="railroad-start"><circle cx="70.359375" cy="63" r="5"/></g><g class="railroad-end"><circle cx="836.3125" cy="63" r="5"/></g><path class="railroad-line" d="M 75.359375 63 L 90.359375 63"/><path class="railroad-line" d="M 826.3125 63 L 831.3125 63"/></g></svg>