<svg id="my-svg" width="100%" xmlns="http://www.w3.org/2000/svg" xmlns:xlink="http://www.w3.org/1999/xlink" class="railroad-diagram" style="max-width: 469.984px; background-color: transparent;" viewBox="0 0 469.984375 798" role="graphics-document document" aria-roledescription="railroadEbnf"><style>#my-svg{font-family:"trebuchet ms",verdana,arial,sans-serif;font-size:16px;fill:#333;}@keyframes edge-animation-frame{from{stroke-dashoffset:0;}}@keyframes dash{to{stroke-dashoffset:0;}}#my-svg .edge-animation-slow{stroke-dasharray:9,5!important;stroke-dashoffset:900;animation:dash 50s linear infinite;stroke-linecap:round;}#my-svg .edge-animation-fast{stroke-dasharray:9,5!important;stroke-dashoffset:900;animation:dash 20s linear infinite;stroke-linecap:round;}#my-svg .error-icon{fill:#552222;}#my-svg .error-text{fill:#552222;stroke:#552222;}#my-svg .edge-thickness-normal{stroke-width:1px;}#my-svg .edge-thickness-thick{stroke-width:3.5px;}#my-svg .edge-pattern-solid{stroke-dasharray:0;}#my-svg .edge-thickness-invisible{stroke-width:0;fill:none;}#my-svg .edge-pattern-dashed{stroke-dasharray:3;}#my-svg .edge-pattern-dotted{stroke-dasharray:2;}#my-svg .marker{fill:#333333;stroke:#333333;}#my-svg .marker.cross{stroke:#333333;}#my-svg svg{font-family:"trebuchet ms",verdana,arial,sans-serif;font-size:16px;}#my-svg p{margin:0;}#my-svg .railroad-diagram{font-family:"trebuchet ms",verdana,arial,sans-serif;font-size:16px;}#my-svg .railroad-terminal rect{fill:#ffffde;stroke:hsl(60, 60%, 83.5294117647%);stroke-width:2px;}#my-svg .railroad-terminal text{fill:#000021;font-family:"trebuchet ms",verdana,arial,sans-serif;font-size:16px;text-anchor:middle;dominant-baseline:middle;}#my-svg .railroad-nonterminal rect{fill:#ECECFF;stroke:hsl(240, 60%, 86.2745098039%);stroke-width:2px;}#my-svg .railroad-nonterminal text{fill:#131300;font-family:"trebuchet ms",verdana,arial,sans-serif;font-size:16px;text-anchor:middle;dominant-baseline:middle;}#my-svg .railroad-line{stroke:#333333;stroke-width:2px;fill:none;}#my-svg .railroad-start circle,#my-svg .railroad-end circle{fill:#333333;}#my-svg .railroad-comment ellipse{fill:rgba(232,232,232, 0.8);stroke:hsl(80, 60%, 86.2745098039%);stroke-width:2px;}#my-svg .railroad-comment text{fill:rgb(6.3333333334, 0, 19.0000000001);font-style:italic;font-family:"trebuchet ms",verdana,arial,sans-serif;font-size:16px;text-anchor:middle;dominant-baseline:middle;}#my-svg .railroad-special rect{fill:hsl(80, 100%, 96.2745098039%);stroke:hsl(80, 60%, 86.2745098039%);stroke-width:2px;stroke-dasharray:5,3;}#my-svg .railroad-special text{fill:#131300;font-family:"trebuchet ms",verdana,arial,sans-serif;font-size:16px;text-anchor:middle;dominant-baseline:middle;}#my-svg .railroad-rule-name{font-weight:bold;fill:#333;font-family:"trebuchet ms",verdana,arial,sans-serif;font-size:16px;}#my-svg .node .neo-node{stroke:#9370DB;}#my-svg [data-look="neo"].node rect,#my-svg [data-look="neo"].cluster rect,#my-svg [data-look="neo"].node polygon{stroke:#9370DB;filter:drop-shadow(1px 2px 2px rgba(185, 185, 185, 1));}#my-svg [data-look="neo"].swimlane.cluster rect{filter:none;}#my-svg [data-look="neo"].node path{stroke:#9370DB;stroke-width:1px;}#my-svg [data-look="neo"].node .outer-path{filter:drop-shadow(1px 2px 2px rgba(185, 185, 185, 1));}#my-svg [data-look="neo"].node .neo-line path{stroke:#9370DB;filter:none;}#my-svg [data-look="neo"].node circle{stroke:#9370DB;filter:drop-shadow(1px 2px 2px rgba(185, 185, 185, 1));}#my-svg [data-look="neo"].node circle .state-start{fill:#000000;}#my-svg [data-look="neo"].icon-shape .icon{fill:#9370DB;filter:drop-shadow(1px 2px 2px rgba(185, 185, 185, 1));}#my-svg [data-look="neo"].icon-shape .icon-neo path{stroke:#9370DB;filter:drop-shadow(1px 2px 2px rgba(185, 185, 185, 1));}#my-svg :root{--mermaid-font-family:"trebuchet ms",verdana,arial,sans-serif;}</style><g/><g class="railroad-rule" transform="translate(0, 10)"><g transform="translate(113.875, 0)"><g class="railroad-sequence"><g class="railroad-terminal" transform="translate(0, 114)"><rect x="0" y="0" width="80.671875" height="39" rx="10" ry="10"/><text x="40.3359375" y="19.5">material</text></g><path class="railroad-line" d="M 80.671875 133.5 L 90.671875 133.5"/><g class="railroad-terminal" transform="translate(90.671875, 114)"><rect x="0" y="0" width="25.875" height="39" rx="10" ry="10"/><text x="12.9375" y="19.5">{</text></g><path class="railroad-line" d="M 116.546875 133.5 L 126.546875 133.5"/><g class="railroad-repetition" transform="translate(126.546875, 0)"><g class="railroad-choice" transform="translate(20, 20)"><g class="railroad-nonterminal" transform="translate(20.0390625, 0)"><rect x="0" y="0" width="78.609375" height="39"/><text x="39.3046875" y="19.5">pigment</text></g><path class="railroad-line" d="M 0 113.5 A 10 10 0 0 0 10 103.5 L 10 29.5 A 10 10 0 0 1 20 19.5 L 20.0390625 19.5"/><path class="railroad-line" d="M 98.6484375 19.5 L 98.6875 19.5 A 10 10 0 0 1 108.6875 29.5 L 108.6875 103.5 A 10 10 0 0 0 118.6875 113.5"/><g class="railroad-nonterminal" transform="translate(24.3671875, 47)"><rect x="0" y="0" width="69.953125" height="39"/><text x="34.9765625" y="19.5">normal</text></g><path class="railroad-line" d="M 0 113.5 A 10 10 0 0 0 10 103.5 L 10 76.5 A 10 10 0 0 1 20 66.5 L 24.3671875 66.5"/><path class="railroad-line" d="M 94.3203125 66.5 L 98.6875 66.5 A 10 10 0 0 1 108.6875 76.5 L 108.6875 103.5 A 10 10 0 0 0 118.6875 113.5"/><g class="railroad-nonterminal" transform="translate(29.84375, 94)"><rect x="0" y="0" width="59" height="39"/><text x="29.5" y="19.5">finish</text></g><path class="railroad-line" d="M 0 113.5 L 29.84375 113.5"/><path class="railroad-line" d="M 88.84375 113.5 L 118.6875 113.5"/><g class="railroad-nonterminal" transform="translate(20, 141)"><rect x="0" y="0" width="78.6875" height="39"/><text x="39.34375" y="19.5">metallic</text></g><path class="railroad-line" d="M 0 113.5 A 10 10 0 0 1 10 123.5 L 10 150.5 A 10 10 0 0 0 20 160.5 L 20 160.5"/><path class="railroad-line" d="M 98.6875 160.5 L 98.6875 160.5 A 10 10 0 0 0 108.6875 150.5 L 108.6875 123.5 A 10 10 0 0 1 118.6875 113.5"/><g class="railroad-nonterminal" transform="translate(22.359375, 188)"><rect x="0" y="0" width="73.96875" height="39"/><text x="36.984375" y="19.5">interior</text></g><path class="railroad-line" d="M 0 113.5 A 10 10 0 0 1 10 123.5 L 10 197.5 A 10 10 0 0 0 20 207.5 L 22.359375 207.5"/><path class="railroad-line" d="M 96.328125 207.5 L 98.6875 207.5 A 10 10 0 0 0 108.6875 197.5 L 108.6875 123.5 A 10 10 0 0 1 118.6875 113.5"/></g><path class="railroad-line" d="M 0 133.5 L 20 133.5"/><path class="railroad-line" d="M 138.6875 133.5 L 158.6875 133.5"/><path class="railroad-line" d="M 138.6875 133.5 A 10 10 0 0 1 148.6875 143.5 L 148.6875 257 A 10 10 0 0 1 138.6875 267 L 20 267 A 10 10 0 0 1 10 257 L 10 143.5 A 10 10 0 0 1 20 133.5"/><path class="railroad-line" d="M 0 133.5 A 10 10 0 0 0 10 123.5 L 10 10 A 10 10 0 0 1 20 0 L 138.6875 0 A 10 10 0 0 1 148.6875 10 L 148.6875 123.5 A 10 10 0 0 0 158.6875 133.5"/></g><path class="railroad-line" d="M 285.234375 133.5 L 295.234375 133.5"/><g class="railroad-terminal" transform="translate(295.234375, 114)"><rect x="0" y="0" width="25.875" height="39" rx="10" ry="10"/><text x="12.9375" y="19.5">}</text></g></g></g><g class="railroad-rule-name-group"><text class="railroad-rule-name" x="0" y="133.5">material =</text></g><g class="railroad-start"><circle cx="93.875" cy="133.5" r="5"/></g><g class="railroad-end"><circle cx="444.984375" cy="133.5" r="5"/></g><path class="railroad-line" d="M 98.875 133.5 L 113.875 133.5"/><path class="railroad-line" d="M 434.984375 133.5 L 439.984375 133.5"/></g><g class="railroad-rule" transform="translate(0, 305)"><g transform="translate(92.21875, 0)"><g class="railroad-sequence"><g class="railroad-choice" transform="translate(0, 0)"><g class="railroad-terminal" transform="translate(37.015625, 0)"><rect x="0" y="0" width="78.984375" height="39" rx="10" ry="10"/><text x="39.4921875" y="19.5">ambient</text></g><path class="railroad-line" d="M 0 184 A 10 10 0 0 0 10 174 L 10 29.5 A 10 10 0 0 1 20 19.5 L 37.015625 19.5"/><path class="railroad-line" d="M 116 19.5 L 133.015625 19.5 A 10 10 0 0 1 143.015625 29.5 L 143.015625 174 A 10 10 0 0 0 153.015625 184"/><g class="railroad-terminal" transform="translate(41.8828125, 47)"><rect x="0" y="0" width="69.25" height="39" rx="10" ry="10"/><text x="34.625" y="19.5">diffuse</text></g><path class="railroad-line" d="M 0 184 A 10 10 0 0 0 10 174 L 10 76.5 A 10 10 0 0 1 20 66.5 L 41.8828125 66.5"/><path class="railroad-line" d="M 111.1328125 66.5 L 133.015625 66.5 A 10 10 0 0 1 143.015625 76.5 L 143.015625 174 A 10 10 0 0 0 153.015625 184"/><g class="railroad-terminal" transform="translate(36.4453125, 94)"><rect x="0" y="0" width="80.125" height="39" rx="10" ry="10"/><text x="40.0625" y="19.5">specular</text></g><path class="railroad-line" d="M 0 184 A 10 10 0 0 0 10 174 L 10 123.5 A 10 10 0 0 1 20 113.5 L 36.4453125 113.5"/><path class="railroad-line" d="M 116.5703125 113.5 L 133.015625 113.5 A 10 10 0 0 1 143.015625 123.5 L 143.015625 174 A 10 10 0 0 0 153.015625 184"/><g class="railroad-terminal" transform="translate(34.75, 141)"><rect x="0" y="0" width="83.515625" height="39" rx="10" ry="10"/><text x="41.7578125" y="19.5">shininess</text></g><path class="railroad-line" d="M 0 184 A 10 10 0 0 0 10 174 L 10 170.5 A 10 10 0 0 1 20 160.5 L 34.75 160.5"/><path class="railroad-line" d="M 118.265625 160.5 L 133.015625 160.5 A 10 10 0 0 1 143.015625 170.5 L 143.015625 174 A 10 10 0 0 0 153.015625 184"/><g class="railroad-terminal" transform="translate(31.65625, 188)"><rect x="0" y="0" width="89.703125" height="39" rx="10" ry="10"/><text x="44.8515625" y="19.5">reflective</text></g><path class="railroad-line" d="M 0 184 A 10 10 0 0 1 10 194 L 10 197.5 A 10 10 0 0 0 20 207.5 L 31.65625 207.5"/><path class="railroad-line" d="M 121.359375 207.5 L 133.015625 207.5 A 10 10 0 0 0 143.015625 197.5 L 143.015625 194 A 10 10 0 0 1 153.015625 184"/><g class="railroad-terminal" transform="translate(20, 235)"><rect x="0" y="0" width="113.015625" height="39" rx="10" ry="10"/><text x="56.5078125" y="19.5">transparency</text></g><path class="railroad-line" d="M 0 184 A 10 10 0 0 1 10 194 L 10 244.5 A 10 10 0 0 0 20 254.5 L 20 254.5"/><path class="railroad-line" d="M 133.015625 254.5 L 133.015625 254.5 A 10 10 0 0 0 143.015625 244.5 L 143.015625 194 A 10 10 0 0 1 153.015625 184"/><g class="railroad-terminal" transform="translate(32.7578125, 282)"><rect x="0" y="0" width="87.5" height="39" rx="10" ry="10"/><text x="43.75" y="19.5">brilliance</text></g><path class="railroad-line" d="M 0 184 A 10 10 0 0 1 10 194 L 10 291.5 A 10 10 0 0 0 20 301.5 L 32.7578125 301.5"/><path class="railroad-line" d="M 120.2578125 301.5 L 133.015625 301.5 A 10 10 0 0 0 143.015625 291.5 L 143.015625 194 A 10 10 0 0 1 153.015625 184"/><g class="railroad-terminal" transform="translate(48.5234375, 329)"><rect x="0" y="0" width="55.96875" height="39" rx="10" ry="10"/><text x="27.984375" y="19.5">grain</text></g><path class="railroad-line" d="M 0 184 A 10 10 0 0 1 10 194 L 10 338.5 A 10 10 0 0 0 20 348.5 L 48.5234375 348.5"/><path class="railroad-line" d="M 104.4921875 348.5 L 133.015625 348.5 A 10 10 0 0 0 143.015625 338.5 L 143.015625 194 A 10 10 0 0 1 153.015625 184"/></g><path class="railroad-line" d="M 153.015625 184 L 163.015625 184"/><g class="railroad-nonterminal" transform="translate(163.015625, 164.5)"><rect x="0" y="0" width="74.625" height="39"/><text x="37.3125" y="19.5">number</text></g></g></g><g class="railroad-rule-name-group"><text class="railroad-rule-name" x="0" y="184">finish =</text></g><g class="railroad-start"><circle cx="72.21875" cy="184" r="5"/></g><g class="railroad-end"><circle cx="339.859375" cy="184" r="5"/></g><path class="railroad-line" d="M 77.21875 184 L 92.21875 184"/><path class="railroad-line" d="M 329.859375 184 L 334.859375 184"/></g><g class="railroad-rule" transform="translate(0, 701)"><g transform="translate(111.890625, 0)"><g class="railroad-sequence"><g class="railroad-terminal" transform="translate(0, 20)"><rect x="0" y="0" width="78.6875" height="39" rx="10" ry="10"/><text x="39.34375" y="19.5">metallic</text></g><path class="railroad-line" d="M 78.6875 39.5 L 88.6875 39.5"/><g class="railroad-optional" transform="translate(88.6875, 0)"><g class="railroad-nonterminal" transform="translate(20, 20)"><rect x="0" y="0" width="74.625" height="39"/><text x="37.3125" y="19.5">number</text></g><path class="railroad-line" d="M 0 39.5 L 20 39.5"/><path class="railroad-line" d="M 94.625 39.5 L 114.625 39.5"/><path class="railroad-line" d="M 0 39.5 A 10 10 0 0 0 10 29.5 L 10 10 A 10 10 0 0 1 20 0 L 94.625 0 A 10 10 0 0 1 104.625 10 L 104.625 29.5 A 10 10 0 0 0 114.625 39.5"/></g></g></g><g class="railroad-rule-name-group"><text class="railroad-rule-name" x="0" y="39.5">metallic =</text></g><g class="railroad-start"><circle cx="91.890625" cy="39.5" r="5"/></g><g class="railroad-end"><circle cx="325.203125" cy="39.5" r="5"/></g><path class="railroad-line" d="M 96.890625 39.5 L 111.890625 39.5"/><path class="railroad-line" d="M 315.203125 39.5 L 320.203125 39.5"/></g></svg>