<svg id="my-svg" width="100%" xmlns="http://www.w3.org/2000/svg" xmlns:xlink="http://www.w3.org/1999/xlink" class="railroad-diagram" style="max-width: 495.922px; background-color: transparent;" viewBox="0 0 495.921875 503" role="graphics-document document" aria-roledescription="railroadEbnf"><style>#my-svg{font-family:"trebuchet ms",verdana,arial,sans-serif;font-size:16px;fill:#ccc;}@keyframes edge-animation-frame{from{stroke-dashoffset:0;}}@keyframes dash{to{stroke-dashoffset:0;}}#my-svg .edge-animation-slow{stroke-dasharray:9,5!important;stroke-dashoffset:900;animation:dash 50s linear infinite;stroke-linecap:round;}#my-svg .edge-animation-fast{stroke-dasharray:9,5!important;stroke-dashoffset:900;animation:dash 20s linear infinite;stroke-linecap:round;}#my-svg .error-icon{fill:#a44141;}#my-svg .error-text{fill:#ddd;stroke:#ddd;}#my-svg .edge-thickness-normal{stroke-width:1px;}#my-svg .edge-thickness-thick{stroke-width:3.5px;}#my-svg .edge-pattern-solid{stroke-dasharray:0;}#my-svg .edge-thickness-invisible{stroke-width:0;fill:none;}#my-svg .edge-pattern-dashed{stroke-dasharray:3;}#my-svg .edge-pattern-dotted{stroke-dasharray:2;}#my-svg .marker{fill:lightgrey;stroke:lightgrey;}#my-svg .marker.cross{stroke:lightgrey;}#my-svg svg{font-family:"trebuchet ms",verdana,arial,sans-serif;font-size:16px;}#my-svg p{margin:0;}#my-svg .railroad-diagram{font-family:"trebuchet ms",verdana,arial,sans-serif;font-size:16px;}#my-svg .railroad-terminal rect{fill:hsl(180, 1.5873015873%, 28.3529411765%);stroke:hsl(180, 0%, 18.3529411765%);stroke-width:2px;}#my-svg .railroad-terminal text{fill:rgb(183.8476190475, 181.5523809523, 181.5523809523);font-family:"trebuchet ms",verdana,arial,sans-serif;font-size:16px;text-anchor:middle;dominant-baseline:middle;}#my-svg .railroad-nonterminal rect{fill:#1f2020;stroke:#cccccc;stroke-width:2px;}#my-svg .railroad-nonterminal text{fill:#e0dfdf;font-family:"trebuchet ms",verdana,arial,sans-serif;font-size:16px;text-anchor:middle;dominant-baseline:middle;}#my-svg .railroad-line{stroke:lightgrey;stroke-width:2px;fill:none;}#my-svg .railroad-start circle,#my-svg .railroad-end circle{fill:lightgrey;}#my-svg .railroad-comment ellipse{fill:#181818;stroke:hsl(20, 0%, 2.3529411765%);stroke-width:2px;}#my-svg .railroad-comment text{fill:rgb(222.9999999999, 223.6666666666, 223.9999999999);font-style:italic;font-family:"trebuchet ms",verdana,arial,sans-serif;font-size:16px;text-anchor:middle;dominant-baseline:middle;}#my-svg .railroad-special rect{fill:hsl(20, 1.5873015873%, 12.3529411765%);stroke:hsl(20, 0%, 2.3529411765%);stroke-width:2px;stroke-dasharray:5,3;}#my-svg .railroad-special text{fill:#e0dfdf;font-family:"trebuchet ms",verdana,arial,sans-serif;font-size:16px;text-anchor:middle;dominant-baseline:middle;}#my-svg .railroad-rule-name{font-weight:bold;fill:#F9FFFE;font-family:"trebuchet ms",verdana,arial,sans-serif;font-size:16px;}#my-svg .node .neo-node{stroke:#ccc;}#my-svg [data-look="neo"].node rect,#my-svg [data-look="neo"].cluster rect,#my-svg [data-look="neo"].node polygon{stroke:url(#my-svg-gradient);filter:drop-shadow( 1px 2px 2px rgba(185,185,185,1));}#my-svg [data-look="neo"].swimlane.cluster rect{filter:none;}#my-svg [data-look="neo"].node path{stroke:url(#my-svg-gradient);stroke-width:1px;}#my-svg [data-look="neo"].node .outer-path{filter:drop-shadow( 1px 2px 2px rgba(185,185,185,1));}#my-svg [data-look="neo"].node .neo-line path{stroke:#ccc;filter:none;}#my-svg [data-look="neo"].node circle{stroke:url(#my-svg-gradient);filter:drop-shadow( 1px 2px 2px rgba(185,185,185,1));}#my-svg [data-look="neo"].node circle .state-start{fill:#000000;}#my-svg [data-look="neo"].icon-shape .icon{fill:url(#my-svg-gradient);filter:drop-shadow( 1px 2px 2px rgba(185,185,185,1));}#my-svg [data-look="neo"].icon-shape .icon-neo path{stroke:url(#my-svg-gradient);filter:drop-shadow( 1px 2px 2px rgba(185,185,185,1));}#my-svg :root{--mermaid-font-family:"trebuchet ms",verdana,arial,sans-serif;}</style><g/><g class="railroad-rule" transform="translate(0, 10)"><g transform="translate(81.015625, 0)"><g class="railroad-sequence"><g class="railroad-terminal" transform="translate(0, 208)"><rect x="0" y="0" width="47.8125" height="39" rx="10" ry="10"/><text x="23.90625" y="19.5">info</text></g><path class="railroad-line" d="M 47.8125 227.5 L 57.8125 227.5"/><g class="railroad-terminal" transform="translate(57.8125, 208)"><rect x="0" y="0" width="25.875" height="39" rx="10" ry="10"/><text x="12.9375" y="19.5">{</text></g><path class="railroad-line" d="M 83.6875 227.5 L 93.6875 227.5"/><g class="railroad-repetition" transform="translate(93.6875, 0)"><g class="railroad-sequence" transform="translate(20, 20)"><g class="railroad-choice" transform="translate(0, 0)"><g class="railroad-terminal" transform="translate(44.6328125, 0)"><rect x="0" y="0" width="50.703125" height="39" rx="10" ry="10"/><text x="25.3515625" y="19.5">title</text></g><path class="railroad-line" d="M 0 207.5 A 10 10 0 0 0 10 197.5 L 10 29.5 A 10 10 0 0 1 20 19.5 L 44.6328125 19.5"/><path class="railroad-line" d="M 95.3359375 19.5 L 119.96875 19.5 A 10 10 0 0 1 129.96875 29.5 L 129.96875 197.5 A 10 10 0 0 0 139.96875 207.5"/><g class="railroad-terminal" transform="translate(36.4609375, 47)"><rect x="0" y="0" width="67.046875" height="39" rx="10" ry="10"/><text x="33.5234375" y="19.5">author</text></g><path class="railroad-line" d="M 0 207.5 A 10 10 0 0 0 10 197.5 L 10 76.5 A 10 10 0 0 1 20 66.5 L 36.4609375 66.5"/><path class="railroad-line" d="M 103.5078125 66.5 L 119.96875 66.5 A 10 10 0 0 1 129.96875 76.5 L 129.96875 197.5 A 10 10 0 0 0 139.96875 207.5"/><g class="railroad-terminal" transform="translate(20, 94)"><rect x="0" y="0" width="99.96875" height="39" rx="10" ry="10"/><text x="49.984375" y="19.5">description</text></g><path class="railroad-line" d="M 0 207.5 A 10 10 0 0 0 10 197.5 L 10 123.5 A 10 10 0 0 1 20 113.5 L 20 113.5"/><path class="railroad-line" d="M 119.96875 113.5 L 119.96875 113.5 A 10 10 0 0 1 129.96875 123.5 L 129.96875 197.5 A 10 10 0 0 0 139.96875 207.5"/><g class="railroad-terminal" transform="translate(26.375, 141)"><rect x="0" y="0" width="87.21875" height="39" rx="10" ry="10"/><text x="43.609375" y="19.5">copyright</text></g><path class="railroad-line" d="M 0 207.5 A 10 10 0 0 0 10 197.5 L 10 170.5 A 10 10 0 0 1 20 160.5 L 26.375 160.5"/><path class="railroad-line" d="M 113.59375 160.5 L 119.96875 160.5 A 10 10 0 0 1 129.96875 170.5 L 129.96875 197.5 A 10 10 0 0 0 139.96875 207.5"/><g class="railroad-terminal" transform="translate(28.6953125, 188)"><rect x="0" y="0" width="82.578125" height="39" rx="10" ry="10"/><text x="41.2890625" y="19.5">software</text></g><path class="railroad-line" d="M 0 207.5 L 28.6953125 207.5"/><path class="railroad-line" d="M 111.2734375 207.5 L 139.96875 207.5"/><g class="railroad-terminal" transform="translate(23.0859375, 235)"><rect x="0" y="0" width="93.796875" height="39" rx="10" ry="10"/><text x="46.8984375" y="19.5">disclaimer</text></g><path class="railroad-line" d="M 0 207.5 A 10 10 0 0 1 10 217.5 L 10 244.5 A 10 10 0 0 0 20 254.5 L 23.0859375 254.5"/><path class="railroad-line" d="M 116.8828125 254.5 L 119.96875 254.5 A 10 10 0 0 0 129.96875 244.5 L 129.96875 217.5 A 10 10 0 0 1 139.96875 207.5"/><g class="railroad-terminal" transform="translate(31.6796875, 282)"><rect x="0" y="0" width="76.609375" height="39" rx="10" ry="10"/><text x="38.3046875" y="19.5">warning</text></g><path class="railroad-line" d="M 0 207.5 A 10 10 0 0 1 10 217.5 L 10 291.5 A 10 10 0 0 0 20 301.5 L 31.6796875 301.5"/><path class="railroad-line" d="M 108.2890625 301.5 L 119.96875 301.5 A 10 10 0 0 0 129.96875 291.5 L 129.96875 217.5 A 10 10 0 0 1 139.96875 207.5"/><g class="railroad-terminal" transform="translate(36.6484375, 329)"><rect x="0" y="0" width="66.671875" height="39" rx="10" ry="10"/><text x="33.3359375" y="19.5">source</text></g><path class="railroad-line" d="M 0 207.5 A 10 10 0 0 1 10 217.5 L 10 338.5 A 10 10 0 0 0 20 348.5 L 36.6484375 348.5"/><path class="railroad-line" d="M 103.3203125 348.5 L 119.96875 348.5 A 10 10 0 0 0 129.96875 338.5 L 129.96875 217.5 A 10 10 0 0 1 139.96875 207.5"/><g class="railroad-terminal" transform="translate(26.5390625, 376)"><rect x="0" y="0" width="86.890625" height="39" rx="10" ry="10"/><text x="43.4453125" y="19.5">comment</text></g><path class="railroad-line" d="M 0 207.5 A 10 10 0 0 1 10 217.5 L 10 385.5 A 10 10 0 0 0 20 395.5 L 26.5390625 395.5"/><path class="railroad-line" d="M 113.4296875 395.5 L 119.96875 395.5 A 10 10 0 0 0 129.96875 385.5 L 129.96875 217.5 A 10 10 0 0 1 139.96875 207.5"/></g><path class="railroad-line" d="M 139.96875 207.5 L 149.96875 207.5"/><g class="railroad-nonterminal" transform="translate(149.96875, 188)"><rect x="0" y="0" width="60.375" height="39"/><text x="30.1875" y="19.5">string</text></g></g><path class="railroad-line" d="M 0 227.5 L 20 227.5"/><path class="railroad-line" d="M 230.34375 227.5 L 250.34375 227.5"/><path class="railroad-line" d="M 230.34375 227.5 A 10 10 0 0 1 240.34375 237.5 L 240.34375 445 A 10 10 0 0 1 230.34375 455 L 20 455 A 10 10 0 0 1 10 445 L 10 237.5 A 10 10 0 0 1 20 227.5"/><path class="railroad-line" d="M 0 227.5 A 10 10 0 0 0 10 217.5 L 10 10 A 10 10 0 0 1 20 0 L 230.34375 0 A 10 10 0 0 1 240.34375 10 L 240.34375 217.5 A 10 10 0 0 0 250.34375 227.5"/></g><path class="railroad-line" d="M 344.03125 227.5 L 354.03125 227.5"/><g class="railroad-terminal" transform="translate(354.03125, 208)"><rect x="0" y="0" width="25.875" height="39" rx="10" ry="10"/><text x="12.9375" y="19.5">}</text></g></g></g><g class="railroad-rule-name-group"><text class="railroad-rule-name" x="0" y="227.5">info =</text></g><g class="railroad-start"><circle cx="61.015625" cy="227.5" r="5"/></g><g class="railroad-end"><circle cx="470.921875" cy="227.5" r="5"/></g><path class="railroad-line" d="M 66.015625 227.5 L 81.015625 227.5"/><path class="railroad-line" d="M 460.921875 227.5 L 465.921875 227.5"/></g></svg>