<svg id="my-svg" width="100%" xmlns="http://www.w3.org/2000/svg" xmlns:xlink="http://www.w3.org/1999/xlink" class="railroad-diagram" style="max-width: 341.562px; background-color: transparent;" viewBox="0 0 341.5625 510" role="graphics-document document" aria-roledescription="railroadEbnf"><style>#my-svg{font-family:"trebuchet ms",verdana,arial,sans-serif;font-size:16px;fill:#ccc;}@keyframes edge-animation-frame{from{stroke-dashoffset:0;}}@keyframes dash{to{stroke-dashoffset:0;}}#my-svg .edge-animation-slow{stroke-dasharray:9,5!important;stroke-dashoffset:900;animation:dash 50s linear infinite;stroke-linecap:round;}#my-svg .edge-animation-fast{stroke-dasharray:9,5!important;stroke-dashoffset:900;animation:dash 20s linear infinite;stroke-linecap:round;}#my-svg .error-icon{fill:#a44141;}#my-svg .error-text{fill:#ddd;stroke:#ddd;}#my-svg .edge-thickness-normal{stroke-width:1px;}#my-svg .edge-thickness-thick{stroke-width:3.5px;}#my-svg .edge-pattern-solid{stroke-dasharray:0;}#my-svg .edge-thickness-invisible{stroke-width:0;fill:none;}#my-svg .edge-pattern-dashed{stroke-dasharray:3;}#my-svg .edge-pattern-dotted{stroke-dasharray:2;}#my-svg .marker{fill:lightgrey;stroke:lightgrey;}#my-svg .marker.cross{stroke:lightgrey;}#my-svg svg{font-family:"trebuchet ms",verdana,arial,sans-serif;font-size:16px;}#my-svg p{margin:0;}#my-svg .railroad-diagram{font-family:"trebuchet ms",verdana,arial,sans-serif;font-size:16px;}#my-svg .railroad-terminal rect{fill:hsl(180, 1.5873015873%, 28.3529411765%);stroke:hsl(180, 0%, 18.3529411765%);stroke-width:2px;}#my-svg .railroad-terminal text{fill:rgb(183.8476190475, 181.5523809523, 181.5523809523);font-family:"trebuchet ms",verdana,arial,sans-serif;font-size:16px;text-anchor:middle;dominant-baseline:middle;}#my-svg .railroad-nonterminal rect{fill:#1f2020;stroke:#cccccc;stroke-width:2px;}#my-svg .railroad-nonterminal text{fill:#e0dfdf;font-family:"trebuchet ms",verdana,arial,sans-serif;font-size:16px;text-anchor:middle;dominant-baseline:middle;}#my-svg .railroad-line{stroke:lightgrey;stroke-width:2px;fill:none;}#my-svg .railroad-start circle,#my-svg .railroad-end circle{fill:lightgrey;}#my-svg .railroad-comment ellipse{fill:#181818;stroke:hsl(20, 0%, 2.3529411765%);stroke-width:2px;}#my-svg .railroad-comment text{fill:rgb(222.9999999999, 223.6666666666, 223.9999999999);font-style:italic;font-family:"trebuchet ms",verdana,arial,sans-serif;font-size:16px;text-anchor:middle;dominant-baseline:middle;}#my-svg .railroad-special rect{fill:hsl(20, 1.5873015873%, 12.3529411765%);stroke:hsl(20, 0%, 2.3529411765%);stroke-width:2px;stroke-dasharray:5,3;}#my-svg .railroad-special text{fill:#e0dfdf;font-family:"trebuchet ms",verdana,arial,sans-serif;font-size:16px;text-anchor:middle;dominant-baseline:middle;}#my-svg .railroad-rule-name{font-weight:bold;fill:#F9FFFE;font-family:"trebuchet ms",verdana,arial,sans-serif;font-size:16px;}#my-svg .node .neo-node{stroke:#ccc;}#my-svg [data-look="neo"].node rect,#my-svg [data-look="neo"].cluster rect,#my-svg [data-look="neo"].node polygon{stroke:url(#my-svg-gradient);filter:drop-shadow( 1px 2px 2px rgba(185,185,185,1));}#my-svg [data-look="neo"].swimlane.cluster rect{filter:none;}#my-svg [data-look="neo"].node path{stroke:url(#my-svg-gradient);stroke-width:1px;}#my-svg [data-look="neo"].node .outer-path{filter:drop-shadow( 1px 2px 2px rgba(185,185,185,1));}#my-svg [data-look="neo"].node .neo-line path{stroke:#ccc;filter:none;}#my-svg [data-look="neo"].node circle{stroke:url(#my-svg-gradient);filter:drop-shadow( 1px 2px 2px rgba(185,185,185,1));}#my-svg [data-look="neo"].node circle .state-start{fill:#000000;}#my-svg [data-look="neo"].icon-shape .icon{fill:url(#my-svg-gradient);filter:drop-shadow( 1px 2px 2px rgba(185,185,185,1));}#my-svg [data-look="neo"].icon-shape .icon-neo path{stroke:url(#my-svg-gradient);filter:drop-shadow( 1px 2px 2px rgba(185,185,185,1));}#my-svg :root{--mermaid-font-family:"trebuchet ms",verdana,arial,sans-serif;}</style><g/><g class="railroad-rule" transform="translate(0, 10)"><g transform="translate(115.03125, 0)"><g class="railroad-choice"><g class="railroad-sequence" transform="translate(27.1484375, 0)"><g class="railroad-terminal" transform="translate(0, 0)"><rect x="0" y="0" width="68.078125" height="39" rx="10" ry="10"/><text x="34.0390625" y="19.5">named</text></g><path class="railroad-line" d="M 68.078125 19.5 L 78.078125 19.5"/><g class="railroad-nonterminal" transform="translate(78.078125, 0)"><rect x="0" y="0" width="59.15625" height="39"/><text x="29.578125" y="19.5">name</text></g></g><path class="railroad-line" d="M 0 231 A 10 10 0 0 0 10 221 L 10 29.5 A 10 10 0 0 1 20 19.5 L 27.1484375 19.5"/><path class="railroad-line" d="M 164.3828125 19.5 L 171.53125 19.5 A 10 10 0 0 1 181.53125 29.5 L 181.53125 221 A 10 10 0 0 0 191.53125 231"/><g class="railroad-sequence" transform="translate(23.25, 47)"><g class="railroad-terminal" transform="translate(0, 0)"><rect x="0" y="0" width="77.875" height="39" rx="10" ry="10"/><text x="38.9375" y="19.5">location</text></g><path class="railroad-line" d="M 77.875 19.5 L 87.875 19.5"/><g class="railroad-nonterminal" transform="translate(87.875, 0)"><rect x="0" y="0" width="57.15625" height="39"/><text x="28.578125" y="19.5">point</text></g></g><path class="railroad-line" d="M 0 231 A 10 10 0 0 0 10 221 L 10 76.5 A 10 10 0 0 1 20 66.5 L 23.25 66.5"/><path class="railroad-line" d="M 168.28125 66.5 L 171.53125 66.5 A 10 10 0 0 1 181.53125 76.5 L 181.53125 221 A 10 10 0 0 0 191.53125 231"/><g class="railroad-sequence" transform="translate(29.0234375, 94)"><g class="railroad-terminal" transform="translate(0, 0)"><rect x="0" y="0" width="57.84375" height="39" rx="10" ry="10"/><text x="28.921875" y="19.5">axisU</text></g><path class="railroad-line" d="M 57.84375 19.5 L 67.84375 19.5"/><g class="railroad-nonterminal" transform="translate(67.84375, 0)"><rect x="0" y="0" width="65.640625" height="39"/><text x="32.8203125" y="19.5">vector</text></g></g><path class="railroad-line" d="M 0 231 A 10 10 0 0 0 10 221 L 10 123.5 A 10 10 0 0 1 20 113.5 L 29.0234375 113.5"/><path class="railroad-line" d="M 162.5078125 113.5 L 171.53125 113.5 A 10 10 0 0 1 181.53125 123.5 L 181.53125 221 A 10 10 0 0 0 191.53125 231"/><g class="railroad-sequence" transform="translate(29.515625, 141)"><g class="railroad-terminal" transform="translate(0, 0)"><rect x="0" y="0" width="56.859375" height="39" rx="10" ry="10"/><text x="28.4296875" y="19.5">axisV</text></g><path class="railroad-line" d="M 56.859375 19.5 L 66.859375 19.5"/><g class="railroad-nonterminal" transform="translate(66.859375, 0)"><rect x="0" y="0" width="65.640625" height="39"/><text x="32.8203125" y="19.5">vector</text></g></g><path class="railroad-line" d="M 0 231 A 10 10 0 0 0 10 221 L 10 170.5 A 10 10 0 0 1 20 160.5 L 29.515625 160.5"/><path class="railroad-line" d="M 162.015625 160.5 L 171.53125 160.5 A 10 10 0 0 1 181.53125 170.5 L 181.53125 221 A 10 10 0 0 0 191.53125 231"/><g class="railroad-sequence" transform="translate(24.984375, 188)"><g class="railroad-terminal" transform="translate(0, 0)"><rect x="0" y="0" width="56.9375" height="39" rx="10" ry="10"/><text x="28.46875" y="19.5">steps</text></g><path class="railroad-line" d="M 56.9375 19.5 L 66.9375 19.5"/><g class="railroad-nonterminal" transform="translate(66.9375, 0)"><rect x="0" y="0" width="74.625" height="39"/><text x="37.3125" y="19.5">number</text></g></g><path class="railroad-line" d="M 0 231 A 10 10 0 0 0 10 221 L 10 217.5 A 10 10 0 0 1 20 207.5 L 24.984375 207.5"/><path class="railroad-line" d="M 166.546875 207.5 L 171.53125 207.5 A 10 10 0 0 1 181.53125 217.5 L 181.53125 221 A 10 10 0 0 0 191.53125 231"/><g class="railroad-sequence" transform="translate(20, 235)"><g class="railroad-terminal" transform="translate(0, 0)"><rect x="0" y="0" width="66.90625" height="39" rx="10" ry="10"/><text x="33.453125" y="19.5">uSteps</text></g><path class="railroad-line" d="M 66.90625 19.5 L 76.90625 19.5"/><g class="railroad-nonterminal" transform="translate(76.90625, 0)"><rect x="0" y="0" width="74.625" height="39"/><text x="37.3125" y="19.5">number</text></g></g><path class="railroad-line" d="M 0 231 A 10 10 0 0 1 10 241 L 10 244.5 A 10 10 0 0 0 20 254.5 L 20 254.5"/><path class="railroad-line" d="M 171.53125 254.5 L 171.53125 254.5 A 10 10 0 0 0 181.53125 244.5 L 181.53125 241 A 10 10 0 0 1 191.53125 231"/><g class="railroad-sequence" transform="translate(20.453125, 282)"><g class="railroad-terminal" transform="translate(0, 0)"><rect x="0" y="0" width="66" height="39" rx="10" ry="10"/><text x="33" y="19.5">vSteps</text></g><path class="railroad-line" d="M 66 19.5 L 76 19.5"/><g class="railroad-nonterminal" transform="translate(76, 0)"><rect x="0" y="0" width="74.625" height="39"/><text x="37.3125" y="19.5">number</text></g></g><path class="railroad-line" d="M 0 231 A 10 10 0 0 1 10 241 L 10 291.5 A 10 10 0 0 0 20 301.5 L 20.453125 301.5"/><path class="railroad-line" d="M 171.078125 301.5 L 171.53125 301.5 A 10 10 0 0 0 181.53125 291.5 L 181.53125 241 A 10 10 0 0 1 191.53125 231"/><g class="railroad-sequence" transform="translate(27.03125, 329)"><g class="railroad-terminal" transform="translate(0, 0)"><rect x="0" y="0" width="52.84375" height="39" rx="10" ry="10"/><text x="26.421875" y="19.5">seed</text></g><path class="railroad-line" d="M 52.84375 19.5 L 62.84375 19.5"/><g class="railroad-nonterminal" transform="translate(62.84375, 0)"><rect x="0" y="0" width="74.625" height="39"/><text x="37.3125" y="19.5">number</text></g></g><path class="railroad-line" d="M 0 231 A 10 10 0 0 1 10 241 L 10 338.5 A 10 10 0 0 0 20 348.5 L 27.03125 348.5"/><path class="railroad-line" d="M 164.5 348.5 L 171.53125 348.5 A 10 10 0 0 0 181.53125 338.5 L 181.53125 241 A 10 10 0 0 1 191.53125 231"/><g class="railroad-sequence" transform="translate(43.0703125, 376)"><g class="railroad-terminal" transform="translate(0, 0)"><rect x="0" y="0" width="37.328125" height="39" rx="10" ry="10"/><text x="18.6640625" y="19.5">no</text></g><path class="railroad-line" d="M 37.328125 19.5 L 47.328125 19.5"/><g class="railroad-terminal" transform="translate(47.328125, 0)"><rect x="0" y="0" width="58.0625" height="39" rx="10" ry="10"/><text x="29.03125" y="19.5">jitter</text></g></g><path class="railroad-line" d="M 0 231 A 10 10 0 0 1 10 241 L 10 385.5 A 10 10 0 0 0 20 395.5 L 43.0703125 395.5"/><path class="railroad-line" d="M 148.4609375 395.5 L 171.53125 395.5 A 10 10 0 0 0 181.53125 385.5 L 181.53125 241 A 10 10 0 0 1 191.53125 231"/><g class="railroad-sequence" transform="translate(34.734375, 423)"><g class="railroad-terminal" transform="translate(0, 0)"><rect x="0" y="0" width="56.03125" height="39" rx="10" ry="10"/><text x="28.015625" y="19.5">color</text></g><path class="railroad-line" d="M 56.03125 19.5 L 66.03125 19.5"/><g class="railroad-nonterminal" transform="translate(66.03125, 0)"><rect x="0" y="0" width="56.03125" height="39"/><text x="28.015625" y="19.5">color</text></g></g><path class="railroad-line" d="M 0 231 A 10 10 0 0 1 10 241 L 10 432.5 A 10 10 0 0 0 20 442.5 L 34.734375 442.5"/><path class="railroad-line" d="M 156.796875 442.5 L 171.53125 442.5 A 10 10 0 0 0 181.53125 432.5 L 181.53125 241 A 10 10 0 0 1 191.53125 231"/></g></g><g class="railroad-rule-name-group"><text class="railroad-rule-name" x="0" y="231">property =</text></g><g class="railroad-start"><circle cx="95.03125" cy="231" r="5"/></g><g class="railroad-end"><circle cx="316.5625" cy="231" r="5"/></g><path class="railroad-line" d="M 100.03125 231 L 115.03125 231"/><path class="railroad-line" d="M 306.5625 231 L 311.5625 231"/></g></svg>