<svg id="my-svg" width="100%" xmlns="http://www.w3.org/2000/svg" xmlns:xlink="http://www.w3.org/1999/xlink" class="railroad-diagram" style="max-width: 359.109px; background-color: transparent;" viewBox="0 0 359.109375 369" role="graphics-document document" aria-roledescription="railroadEbnf"><style>#my-svg{font-family:"trebuchet ms",verdana,arial,sans-serif;font-size:16px;fill:#ccc;}@keyframes edge-animation-frame{from{stroke-dashoffset:0;}}@keyframes dash{to{stroke-dashoffset:0;}}#my-svg .edge-animation-slow{stroke-dasharray:9,5!important;stroke-dashoffset:900;animation:dash 50s linear infinite;stroke-linecap:round;}#my-svg .edge-animation-fast{stroke-dasharray:9,5!important;stroke-dashoffset:900;animation:dash 20s linear infinite;stroke-linecap:round;}#my-svg .error-icon{fill:#a44141;}#my-svg .error-text{fill:#ddd;stroke:#ddd;}#my-svg .edge-thickness-normal{stroke-width:1px;}#my-svg .edge-thickness-thick{stroke-width:3.5px;}#my-svg .edge-pattern-solid{stroke-dasharray:0;}#my-svg .edge-thickness-invisible{stroke-width:0;fill:none;}#my-svg .edge-pattern-dashed{stroke-dasharray:3;}#my-svg .edge-pattern-dotted{stroke-dasharray:2;}#my-svg .marker{fill:lightgrey;stroke:lightgrey;}#my-svg .marker.cross{stroke:lightgrey;}#my-svg svg{font-family:"trebuchet ms",verdana,arial,sans-serif;font-size:16px;}#my-svg p{margin:0;}#my-svg .railroad-diagram{font-family:"trebuchet ms",verdana,arial,sans-serif;font-size:16px;}#my-svg .railroad-terminal rect{fill:hsl(180, 1.5873015873%, 28.3529411765%);stroke:hsl(180, 0%, 18.3529411765%);stroke-width:2px;}#my-svg .railroad-terminal text{fill:rgb(183.8476190475, 181.5523809523, 181.5523809523);font-family:"trebuchet ms",verdana,arial,sans-serif;font-size:16px;text-anchor:middle;dominant-baseline:middle;}#my-svg .railroad-nonterminal rect{fill:#1f2020;stroke:#cccccc;stroke-width:2px;}#my-svg .railroad-nonterminal text{fill:#e0dfdf;font-family:"trebuchet ms",verdana,arial,sans-serif;font-size:16px;text-anchor:middle;dominant-baseline:middle;}#my-svg .railroad-line{stroke:lightgrey;stroke-width:2px;fill:none;}#my-svg .railroad-start circle,#my-svg .railroad-end circle{fill:lightgrey;}#my-svg .railroad-comment ellipse{fill:#181818;stroke:hsl(20, 0%, 2.3529411765%);stroke-width:2px;}#my-svg .railroad-comment text{fill:rgb(222.9999999999, 223.6666666666, 223.9999999999);font-style:italic;font-family:"trebuchet ms",verdana,arial,sans-serif;font-size:16px;text-anchor:middle;dominant-baseline:middle;}#my-svg .railroad-special rect{fill:hsl(20, 1.5873015873%, 12.3529411765%);stroke:hsl(20, 0%, 2.3529411765%);stroke-width:2px;stroke-dasharray:5,3;}#my-svg .railroad-special text{fill:#e0dfdf;font-family:"trebuchet ms",verdana,arial,sans-serif;font-size:16px;text-anchor:middle;dominant-baseline:middle;}#my-svg .railroad-rule-name{font-weight:bold;fill:#F9FFFE;font-family:"trebuchet ms",verdana,arial,sans-serif;font-size:16px;}#my-svg .node .neo-node{stroke:#ccc;}#my-svg [data-look="neo"].node rect,#my-svg [data-look="neo"].cluster rect,#my-svg [data-look="neo"].node polygon{stroke:url(#my-svg-gradient);filter:drop-shadow( 1px 2px 2px rgba(185,185,185,1));}#my-svg [data-look="neo"].swimlane.cluster rect{filter:none;}#my-svg [data-look="neo"].node path{stroke:url(#my-svg-gradient);stroke-width:1px;}#my-svg [data-look="neo"].node .outer-path{filter:drop-shadow( 1px 2px 2px rgba(185,185,185,1));}#my-svg [data-look="neo"].node .neo-line path{stroke:#ccc;filter:none;}#my-svg [data-look="neo"].node circle{stroke:url(#my-svg-gradient);filter:drop-shadow( 1px 2px 2px rgba(185,185,185,1));}#my-svg [data-look="neo"].node circle .state-start{fill:#000000;}#my-svg [data-look="neo"].icon-shape .icon{fill:url(#my-svg-gradient);filter:drop-shadow( 1px 2px 2px rgba(185,185,185,1));}#my-svg [data-look="neo"].icon-shape .icon-neo path{stroke:url(#my-svg-gradient);filter:drop-shadow( 1px 2px 2px rgba(185,185,185,1));}#my-svg :root{--mermaid-font-family:"trebuchet ms",verdana,arial,sans-serif;}</style><g/><g class="railroad-rule" transform="translate(0, 10)"><g transform="translate(115.03125, 0)"><g class="railroad-choice"><g class="railroad-sequence" transform="translate(35.921875, 0)"><g class="railroad-terminal" transform="translate(0, 0)"><rect x="0" y="0" width="68.078125" height="39" rx="10" ry="10"/><text x="34.0390625" y="19.5">named</text></g><path class="railroad-line" d="M 68.078125 19.5 L 78.078125 19.5"/><g class="railroad-nonterminal" transform="translate(78.078125, 0)"><rect x="0" y="0" width="59.15625" height="39"/><text x="29.578125" y="19.5">name</text></g></g><path class="railroad-line" d="M 0 160.5 A 10 10 0 0 0 10 150.5 L 10 29.5 A 10 10 0 0 1 20 19.5 L 35.921875 19.5"/><path class="railroad-line" d="M 173.15625 19.5 L 189.078125 19.5 A 10 10 0 0 1 199.078125 29.5 L 199.078125 150.5 A 10 10 0 0 0 209.078125 160.5"/><g class="railroad-sequence" transform="translate(32.0234375, 47)"><g class="railroad-terminal" transform="translate(0, 0)"><rect x="0" y="0" width="77.875" height="39" rx="10" ry="10"/><text x="38.9375" y="19.5">location</text></g><path class="railroad-line" d="M 77.875 19.5 L 87.875 19.5"/><g class="railroad-nonterminal" transform="translate(87.875, 0)"><rect x="0" y="0" width="57.15625" height="39"/><text x="28.578125" y="19.5">point</text></g></g><path class="railroad-line" d="M 0 160.5 A 10 10 0 0 0 10 150.5 L 10 76.5 A 10 10 0 0 1 20 66.5 L 32.0234375 66.5"/><path class="railroad-line" d="M 177.0546875 66.5 L 189.078125 66.5 A 10 10 0 0 1 199.078125 76.5 L 199.078125 150.5 A 10 10 0 0 0 209.078125 160.5"/><g class="railroad-sequence" transform="translate(20.0078125, 94)"><g class="railroad-terminal" transform="translate(0, 0)"><rect x="0" y="0" width="57.15625" height="39" rx="10" ry="10"/><text x="28.578125" y="19.5">point</text></g><path class="railroad-line" d="M 57.15625 19.5 L 67.15625 19.5"/><g class="railroad-terminal" transform="translate(67.15625, 0)"><rect x="0" y="0" width="34.75" height="39" rx="10" ry="10"/><text x="17.375" y="19.5">at</text></g><path class="railroad-line" d="M 101.90625 19.5 L 111.90625 19.5"/><g class="railroad-nonterminal" transform="translate(111.90625, 0)"><rect x="0" y="0" width="57.15625" height="39"/><text x="28.578125" y="19.5">point</text></g></g><path class="railroad-line" d="M 0 160.5 A 10 10 0 0 0 10 150.5 L 10 123.5 A 10 10 0 0 1 20 113.5 L 20.0078125 113.5"/><path class="railroad-line" d="M 189.0703125 113.5 L 189.078125 113.5 A 10 10 0 0 1 199.078125 123.5 L 199.078125 150.5 A 10 10 0 0 0 209.078125 160.5"/><g class="railroad-sequence" transform="translate(38.5625, 141)"><g class="railroad-terminal" transform="translate(0, 0)"><rect x="0" y="0" width="63.328125" height="39" rx="10" ry="10"/><text x="31.6640625" y="19.5">radius</text></g><path class="railroad-line" d="M 63.328125 19.5 L 73.328125 19.5"/><g class="railroad-nonterminal" transform="translate(73.328125, 0)"><rect x="0" y="0" width="58.625" height="39"/><text x="29.3125" y="19.5">angle</text></g></g><path class="railroad-line" d="M 0 160.5 L 38.5625 160.5"/><path class="railroad-line" d="M 170.515625 160.5 L 209.078125 160.5"/><g class="railroad-sequence" transform="translate(38.1015625, 188)"><g class="railroad-terminal" transform="translate(0, 0)"><rect x="0" y="0" width="64.25" height="39" rx="10" ry="10"/><text x="32.125" y="19.5">falloff</text></g><path class="railroad-line" d="M 64.25 19.5 L 74.25 19.5"/><g class="railroad-nonterminal" transform="translate(74.25, 0)"><rect x="0" y="0" width="58.625" height="39"/><text x="29.3125" y="19.5">angle</text></g></g><path class="railroad-line" d="M 0 160.5 A 10 10 0 0 1 10 170.5 L 10 197.5 A 10 10 0 0 0 20 207.5 L 38.1015625 207.5"/><path class="railroad-line" d="M 170.9765625 207.5 L 189.078125 207.5 A 10 10 0 0 0 199.078125 197.5 L 199.078125 170.5 A 10 10 0 0 1 209.078125 160.5"/><g class="railroad-sequence" transform="translate(20, 235)"><g class="railroad-terminal" transform="translate(0, 0)"><rect x="0" y="0" width="84.453125" height="39" rx="10" ry="10"/><text x="42.2265625" y="19.5">tightness</text></g><path class="railroad-line" d="M 84.453125 19.5 L 94.453125 19.5"/><g class="railroad-nonterminal" transform="translate(94.453125, 0)"><rect x="0" y="0" width="74.625" height="39"/><text x="37.3125" y="19.5">number</text></g></g><path class="railroad-line" d="M 0 160.5 A 10 10 0 0 1 10 170.5 L 10 244.5 A 10 10 0 0 0 20 254.5 L 20 254.5"/><path class="railroad-line" d="M 189.078125 254.5 L 189.078125 254.5 A 10 10 0 0 0 199.078125 244.5 L 199.078125 170.5 A 10 10 0 0 1 209.078125 160.5"/><g class="railroad-sequence" transform="translate(43.5078125, 282)"><g class="railroad-terminal" transform="translate(0, 0)"><rect x="0" y="0" width="56.03125" height="39" rx="10" ry="10"/><text x="28.015625" y="19.5">color</text></g><path class="railroad-line" d="M 56.03125 19.5 L 66.03125 19.5"/><g class="railroad-nonterminal" transform="translate(66.03125, 0)"><rect x="0" y="0" width="56.03125" height="39"/><text x="28.015625" y="19.5">color</text></g></g><path class="railroad-line" d="M 0 160.5 A 10 10 0 0 1 10 170.5 L 10 291.5 A 10 10 0 0 0 20 301.5 L 43.5078125 301.5"/><path class="railroad-line" d="M 165.5703125 301.5 L 189.078125 301.5 A 10 10 0 0 0 199.078125 291.5 L 199.078125 170.5 A 10 10 0 0 1 209.078125 160.5"/></g></g><g class="railroad-rule-name-group"><text class="railroad-rule-name" x="0" y="160.5">property =</text></g><g class="railroad-start"><circle cx="95.03125" cy="160.5" r="5"/></g><g class="railroad-end"><circle cx="334.109375" cy="160.5" r="5"/></g><path class="railroad-line" d="M 100.03125 160.5 L 115.03125 160.5"/><path class="railroad-line" d="M 324.109375 160.5 L 329.109375 160.5"/></g></svg>